<svg width="1280" height="111" viewBox="0 0 1280 111" fill="none" xmlns="http://www.w3.org/2000/svg">
<path fill-rule="evenodd" clip-rule="evenodd" d="M1280 66.6L1237.33 57.72C1194.67 48.84 1109.33 31.08 1024 35.52C938.667 39.96 853.333 66.6 768 84.36C682.667 102.12 597.333 111 512 111C426.667 111 341.333 102.12 256 86.58C170.667 71.04 85.3333 48.84 42.6666 37.74L-0.00012207 26.64V0H42.6666C85.3333 0 170.667 0 256 0C341.333 0 426.667 0 512 0C597.333 0 682.667 0 768 0C853.333 0 938.667 0 1024 0C1109.33 0 1194.67 0 1237.33 0H1280V66.6Z" fill="#31611A" fill-opacity="0.8"/>
</svg>
